<svg xmlns="http://www.w3.org/2000/svg" width="173" height="24" viewBox="0 0 173 24">
    <g fill="none" fill-rule="nonzero">
        <g fill="#BBBB14">
            <path d="M130.683 9.24V2.2h2.452c.643 0 1.125.16 1.486.44.443.36.764 1 .764 1.64 0 1.2-.884 2.08-2.17 2.08h-1.688V9.2h-.844v.04zm2.452-3.6c.844 0 1.366-.52 1.366-1.36 0-.8-.522-1.36-1.326-1.36h-1.648v2.72h1.608zM141.735 9.24l-1.286-3.04h-2.01v3.04h-.803V2.2h2.732c1.326 0 2.21.8 2.21 1.96 0 .48-.2.96-.482 1.28-.2.24-.402.36-.803.52l1.366 3.24h-.924v.04zm-1.447-3.76c.522 0 .844-.12 1.085-.4.241-.24.362-.56.362-.92 0-.72-.523-1.16-1.327-1.16h-1.969v2.48h1.849zM145.15 9.24V2.2h.885v7.04zM151.34 9.24h-.845l-2.37-7.04h.924l1.929 5.8 1.929-5.8h.763zM159.296 9.24l-.683-2.04h-2.572l-.603 2.04h-.723l2.25-7.04h1.005l2.29 7.04h-.964zm-1.969-6.12l-1.085 3.36h2.13l-1.045-3.36zM163.074 9.24V2.96h-2.01V2.2h4.863v.76h-2.01V9.2h-.843zM172.598 9.24h-4.5V2.2h4.42v.76h-3.537V5.2h2.813v.72h-2.813v2.52h3.657v.8zM136.55 21.84h-.884l-1.527-5.44-1.446 5.44h-.885l-1.808-7h.924l1.407 5.68 1.487-5.68h.723l1.608 5.68 1.326-5.68h.763zM144.87 21.84h-4.542v-7h4.46v.76h-3.576v2.24h2.853v.72h-2.853v2.52h3.697v.76zM151.62 21.84l-.723-2.04h-2.612l-.643 2.04h-.723l2.29-7.04h1.005l2.29 7.04h-.883zm-1.969-6.08l-1.085 3.36h2.17l-1.085-3.36zM159.136 21.84h-4.14v-7h.884v6.24h3.256zM161.426 21.84V15.6h-2.01v-.76h4.904v.76h-2.01v6.24zM170.589 21.84v-3.36h-3.296v3.36h-.884v-7h.884v2.92h3.296v-2.92h.884v7.04h-.884z"/>
        </g>
        <path fill="#BBBB14" d="M118 0h1v24h-1z"/>
        <path fill="#264C59" d="M63.44 1.832h-5.76L52.64 14.79l-5-12.957h-5.8l7.92 19.732 2.88.04 2.88-.04zM65.32 21.643V1.833H83v4.793H70.48v2.695h11.8v4.754s0 .04-.04.04H70.48v2.734H83v4.794H65.32zM20.32 21.564h-5.16v-7.37h-10v7.37H0V1.832h5.16v7.251h10v-7.25h5.16zM46.2 21.564h-5.16l-6.8-16.087-6.8 16.087h-5.2l7.24-17.196c1.72-4.16 7.72-4.16 9.48.04l7.24 17.156zM86 21.604h5.2v-11.49l9.84 11.49h4.72V1.832h-5.16V13.6L90.68 1.832H86z"/>
        <path fill="#BBBB14" d="M34.2 13.56l-3.4 8.004h6.8z"/>
    </g>
</svg>
