<svg xmlns="http://www.w3.org/2000/svg" xmlns:xlink="http://www.w3.org/1999/xlink" width="172" height="61" viewBox="0 0 172 61">
    <defs>
        <path id="a" d="M.191.017h44.607v38.784H.19z"/>
        <path id="c" d="M.014.051h171.884v57.836H.014z"/>
    </defs>
    <g fill="none" fill-rule="evenodd">
        <path fill="#1D1035" d="M17.568 44.484a51.12 51.12 0 0 1-.163 2.099c-.072.727-.17 1.444-.295 2.15a18.222 18.222 0 0 1-.474 2.026 8.093 8.093 0 0 1-.706 1.7c-.278.488-.61.878-.995 1.17-.385.291-.83.444-1.334.457-.353.01-.577-.117-.674-.38-.096-.262-.126-.57-.09-.923.036-.352.104-.698.206-1.036a9.2 9.2 0 0 0 .197-.736c.27-1.122.438-2.273.5-3.455a22.16 22.16 0 0 0-.092-3.528 22.602 22.602 0 0 0-.636-3.44 20.062 20.062 0 0 0-1.15-3.21 26.647 26.647 0 0 1-.589-1.096c-.182-.358-.36-.702-.534-1.032-.202-.428-.287-.805-.256-1.13.03-.326.151-.6.362-.822.21-.222.493-.389.848-.501a4.028 4.028 0 0 1 1.203-.17c.85.086 1.568.354 2.159.804.59.45 1.068.992 1.435 1.626.366.634.637 1.314.813 2.04.175.726.279 1.408.31 2.045.567-.296 1.022-.595 1.365-.896.938-.847 1.61-1.712 2.018-2.594.407-.882.6-1.737.581-2.564a5.2 5.2 0 0 0-.61-2.338 6.467 6.467 0 0 0-1.56-1.923 7.516 7.516 0 0 0-2.27-1.304 8.009 8.009 0 0 0-2.732-.488c-.958-.007-1.937.165-2.937.517-1 .35-1.97.923-2.909 1.716-.698.603-1.36 1.24-1.986 1.911a33.239 33.239 0 0 0-1.727 2.002 34.607 34.607 0 0 0-1.413 1.904 31.595 31.595 0 0 0-1.043 1.61c-.279.468-.49.84-.635 1.114-.144.274-.205.41-.181.41-.188.005-.322-.035-.4-.12a.582.582 0 0 1-.151-.295 1.415 1.415 0 0 1-.02-.35c.008-.118.011-.216.009-.291-.003-.087.09-.338.276-.755a22.7 22.7 0 0 1 .78-1.538c.334-.61.737-1.275 1.208-1.996.471-.722.99-1.43 1.556-2.128a32.007 32.007 0 0 1 1.765-1.913 27.505 27.505 0 0 1 1.99-1.806c.693-.57 1.414-1.1 2.163-1.591.748-.49 1.51-.914 2.288-1.27.765-.345 1.529-.62 2.293-.824a10.012 10.012 0 0 1 2.326-.337c1.42-.038 2.652.151 3.694.567 1.041.417 1.9.987 2.575 1.71a6.799 6.799 0 0 1 1.488 2.51c.318.949.467 1.94.446 2.975a10.255 10.255 0 0 1-.556 3.099 10.422 10.422 0 0 1-1.514 2.88 10.2 10.2 0 0 1-2.44 2.33c-.967.664-2.075 1.142-3.324 1.435a94.197 94.197 0 0 0 3.158 4.576 26.001 26.001 0 0 0 3.262 3.672 17.941 17.941 0 0 0 3.832 2.707c1.398.737 3.014 1.297 4.849 1.682.745.164 1.256.42 1.531.771.276.35.384.734.327 1.152-.057.418-.247.84-.569 1.265-.322.425-.713.79-1.173 1.094-.242.17-.506.292-.791.37-.286.078-.57.131-.85.16a6.821 6.821 0 0 1-.81.038 16.766 16.766 0 0 0-.67.002 6.204 6.204 0 0 1-2.095-.432 10.304 10.304 0 0 1-2.106-1.113 16.9 16.9 0 0 1-2.035-1.634 23.013 23.013 0 0 1-1.896-1.996 26.069 26.069 0 0 1-1.664-2.196 22.731 22.731 0 0 1-1.34-2.229 18.674 18.674 0 0 1-.946-2.102c-.25-.67-.408-1.274-.472-1.814"/>
        <path fill="#1D1035" d="M27.34 41.784c.406-.11.823-.25 1.252-.421.43-.17.817-.39 1.162-.659.346-.268.635-.59.868-.969.232-.378.36-.83.384-1.353.047-.744-.292-1.22-1.02-1.427-.19-.049-.401.055-.634.31-.232.257-.468.61-.706 1.061-.239.452-.471.979-.698 1.583a22.152 22.152 0 0 0-.607 1.875zm3.934-1.683c-.19.354-.435.667-.733.942a6.011 6.011 0 0 1-1.001.74c-.37.22-.763.406-1.18.558-.418.153-.835.278-1.252.375a23.653 23.653 0 0 0-.34 1.939c-.083.635-.119 1.207-.107 1.72.012.512.084.932.215 1.262.13.329.345.512.643.548.405.062.817-.02 1.234-.247a5.208 5.208 0 0 0 1.234-.96 11.03 11.03 0 0 0 1.171-1.436c.376-.542.73-1.1 1.064-1.674.334-.572.64-1.136.92-1.691.28-.555.522-1.049.725-1.482.202-.433.366-.777.491-1.033.126-.256.2-.372.224-.348a.379.379 0 0 1 .33.128c.09.098.11.269.063.513-.107.28-.26.642-.456 1.088-.196.445-.426.933-.688 1.463-.262.53-.551 1.086-.867 1.664-.316.58-.644 1.14-.984 1.683-.34.543-.688 1.05-1.045 1.518-.358.47-.704.857-1.038 1.162-.786.695-1.546 1.14-2.28 1.335-.732.195-1.403.174-2.01-.064-.609-.238-1.127-.68-1.556-1.326-.43-.646-.733-1.457-.912-2.433a9.735 9.735 0 0 1-.098-2.542 12.874 12.874 0 0 1 1.466-4.939c.4-.743.843-1.39 1.332-1.939.488-.548 1.013-.969 1.573-1.262.56-.292 1.127-.408 1.699-.347a2.624 2.624 0 0 1 1.43.603c.405.342.71.757.912 1.244.202.488.295 1.019.277 1.591a3.633 3.633 0 0 1-.456 1.647z"/>
        <g fill="#1D1035">
            <path d="M47.823 40.115c.047-.044.1-.084.16-.123a.241.241 0 0 1 .178-.04c.06.01.119.054.178.13.06.076.113.202.16.376l-.418 1.028c-.172.424-.374.893-.605 1.404a44.256 44.256 0 0 1-.765 1.6 21.87 21.87 0 0 1-.899 1.616c-.261.425-.549.833-.863 1.225a8.83 8.83 0 0 1-.97 1.037c-.332.3-.664.538-.996.718-.333.18-.647.27-.943.27-.463 0-.816-.145-1.059-.433-.243-.289-.412-.67-.507-1.143a7.18 7.18 0 0 1-.116-1.616c.018-.604.05-1.222.098-1.853.047-.631.092-1.25.134-1.853.041-.605.047-1.143.017-1.617-.03-.473-.118-.854-.267-1.143-.148-.287-.388-.432-.72-.432-.166 0-.356.13-.57.392-.213.26-.427.585-.64.971-.214.386-.416.8-.605 1.241-.19.44-.344.846-.463 1.216-.071.664-.116 1.271-.133 1.82-.018.55-.033 1.043-.045 1.478a39.67 39.67 0 0 1-.044 1.118c-.018.31-.063.564-.134.76-.095.26-.237.46-.427.595a1.12 1.12 0 0 1-.605.22 1.17 1.17 0 0 1-.64-.163 1.397 1.397 0 0 1-.534-.57 3.897 3.897 0 0 1-.312-.817 6.492 6.492 0 0 1-.169-.89c-.035-.3-.06-.596-.07-.89a20.63 20.63 0 0 1-.019-.832c0-1.252.027-2.492.08-3.723.054-1.23.11-2.47.17-3.722.011-.174.02-.365.026-.571.006-.207.036-.398.09-.572a.916.916 0 0 1 .275-.433c.13-.114.332-.171.605-.171.545 0 .952.093 1.219.278.267.185.454.424.56.718.107.294.157.626.151.996-.006.37-.008.74-.008 1.11 0 .12-.003.273-.01.457-.005.186-.008.376-.008.572 0 .196-.003.386-.009.571a13.42 13.42 0 0 0-.009.457A25.357 25.357 0 0 1 38 39.666c.143-.245.297-.498.463-.76.166-.26.338-.516.516-.767.451-.587.937-1.012 1.46-1.273.521-.261 1.01-.365 1.467-.31.457.054.851.267 1.184.636.332.37.54.893.622 1.568a9.39 9.39 0 0 1 .01 2.27l-.277 2.301c-.023.24-.059.55-.106.93-.048.382-.08.763-.098 1.143a8.46 8.46 0 0 0 .009 1.037c.024.31.095.514.213.613.119.097.294.057.525-.123.232-.18.543-.569.935-1.168.308-.478.62-1.012.934-1.6a54.722 54.722 0 0 0 1.565-3.158c.196-.43.33-.727.4-.89M61.209 55.966c.517.123.978.026 1.38-.291.403-.316.751-.759 1.044-1.327.292-.568.544-1.214.755-1.937.211-.724.377-1.431.5-2.122.121-.691.213-1.322.274-1.892.06-.571.094-.99.1-1.26a6.858 6.858 0 0 0-.523.293 7.875 7.875 0 0 0-.87.627c-.333.27-.684.607-1.052 1.013a9.257 9.257 0 0 0-1.453 2.178c-.158.318-.312.666-.462 1.044-.15.378-.277.766-.382 1.166-.105.398-.161.77-.171 1.114-.01.345.05.643.18.894.129.251.356.418.68.5zm17.128-11.117c1.53.472 3.03 1.02 4.494 1.644a127.71 127.71 0 0 1 4.506 2.025c.794.355 1.758.77 2.89 1.244 1.133.474 2.355.943 3.668 1.405 1.312.463 2.681.875 4.107 1.238a28.78 28.78 0 0 0 4.228.752c1.393.139 2.73.122 4.012-.05 1.281-.174 2.438-.568 3.469-1.184 1.03-.616 1.893-1.49 2.588-2.621.694-1.131 1.152-2.598 1.371-4.399a9.037 9.037 0 0 0 .23-1.745 6.758 6.758 0 0 1 .172-1.43c.098-.391.29-.661.575-.81.285-.15.771-.112 1.46.111.728.267 1.296.698 1.706 1.295.409.596.692 1.29.85 2.078.157.79.197 1.63.12 2.523a14.406 14.406 0 0 1-.485 2.649 12.946 12.946 0 0 1-.963 2.459c-.396.765-.837 1.408-1.324 1.928a10.543 10.543 0 0 1-2.366 1.976 14.3 14.3 0 0 1-2.78 1.313c-.975.337-1.974.582-2.999.733a20.789 20.789 0 0 1-7.698-.32 41.303 41.303 0 0 1-4.846-1.423 64.704 64.704 0 0 1-4.802-1.95 325.864 325.864 0 0 1-4.546-2.103c-.991-.485-1.97-.955-2.934-1.412-.965-.456-1.924-.911-2.876-1.368-.718-.356-1.484-.739-2.3-1.146a56.199 56.199 0 0 0-2.483-1.164c-.84-.369-1.68-.704-2.518-1.005a14.416 14.416 0 0 0-2.382-.651 59.626 59.626 0 0 1-.542 4.031 33.276 33.276 0 0 1-.814 3.611 18.072 18.072 0 0 1-1.15 3.014c-.444.893-.966 1.646-1.566 2.259-.712.736-1.403 1.212-2.072 1.43-.67.219-1.322.253-1.956.103-.712-.178-1.296-.467-1.751-.867a4.044 4.044 0 0 1-1.044-1.423 5.309 5.309 0 0 1-.427-1.786 9.106 9.106 0 0 1 .08-1.955c.096-.66.258-1.3.485-1.92.227-.619.5-1.186.82-1.703a14.348 14.348 0 0 1 2.235-2.848 22.515 22.515 0 0 1 2.601-2.183l.137-8.107c-.287.8-.666 1.486-1.138 2.058a5.506 5.506 0 0 1-1.65 1.364 6.016 6.016 0 0 1-2.085.656 8.24 8.24 0 0 1-2.443-.066c-1.008-.17-1.868-.55-2.579-1.139-.711-.589-1.302-1.326-1.77-2.213-.47-.887-.833-1.903-1.09-3.05a28.77 28.77 0 0 1-.567-3.634 44.67 44.67 0 0 1-.19-3.97c-.006-1.368.01-2.72.05-4.052.012-.464.033-.978.062-1.54.029-.562.084-1.132.164-1.71.08-.578.192-1.138.338-1.68.145-.542.34-1.025.586-1.451.245-.424.544-.768.897-1.032.352-.262.78-.4 1.281-.411.461-.071.914-.086 1.36-.044.444.042.846.156 1.205.341.36.186.656.445.89.776.235.331.372.743.412 1.236.023.359-.011.962-.103 1.81a446.1 446.1 0 0 0-.311 2.982c-.116 1.14-.23 2.37-.34 3.689a50.71 50.71 0 0 0-.177 3.922 33.041 33.041 0 0 0 .172 3.689c.123 1.164.357 2.154.702 2.969.249.622.578 1.112.987 1.469.409.357.845.567 1.31.63.465.064.932-.025 1.401-.268.47-.244.895-.662 1.277-1.254.283-.441.546-.941.787-1.5.241-.56.443-1.157.605-1.789l.159-11.407c.045-.69.202-1.27.472-1.74.27-.47.603-.834 1.001-1.09a3.041 3.041 0 0 1 1.309-.47 3.134 3.134 0 0 1 2.581.87c.363.343.636.782.82 1.316-.135.722-.211 1.554-.23 2.498a51.86 51.86 0 0 1-.139 2.899 120.16 120.16 0 0 0-.224 3.99c-.057 1.4-.116 2.831-.178 4.292a621.371 621.371 0 0 1-.202 4.427 115.462 115.462 0 0 1-.3 4.396 17.98 17.98 0 0 1 2.103-.016c.708.035 1.398.097 2.07.186a19.23 19.23 0 0 1 1.91.347c.603.142 1.144.298 1.625.466z"/>
        </g>
        <path fill="#1D1035" d="M81.01 29.008c-.054.194-.12.468-.198.82a5.662 5.662 0 0 0-.131 1.053c-.01.348.032.658.127.929.096.271.29.422.584.453.054-.392.107-.818.157-1.279.052-.46.095-1.045.13-1.758a2.053 2.053 0 0 0-.024-.525c-.03-.153-.077-.255-.141-.304-.064-.049-.139-.03-.225.057-.086.086-.18.271-.28.554zm-8.866 8.311a9.881 9.881 0 0 1-.135-1.42 17.04 17.04 0 0 1 .05-1.933c.056-.71.15-1.46.285-2.25.135-.79.322-1.577.564-2.361.241-.784.539-1.547.891-2.287.353-.74.77-1.407 1.255-2.004.336-.407.684-.692 1.044-.855.36-.162.718-.23 1.072-.203.354.027.696.132 1.026.317.33.185.64.414.93.688.239.24.392.47.458.685.066.217.077.43.037.64-.042.21-.118.434-.228.671-.11.237-.221.497-.335.779a77.192 77.192 0 0 0-1.072 2.869 24.86 24.86 0 0 0-.635 2.084c-.149.591-.25 1.102-.306 1.531-.057.43-.084.835-.083 1.214-.015.805.033 1.536.143 2.195.109.659.274 1.165.49 1.518.219.354.48.516.783.486.304-.029.643-.321 1.018-.878.523-.792.93-1.647 1.222-2.564.29-.918.503-1.875.638-2.87-.485.02-.872-.111-1.162-.393-.29-.28-.5-.642-.631-1.082-.13-.44-.19-.913-.175-1.421.015-.508.077-.987.188-1.436.07-.224.148-.451.238-.682.09-.23.198-.437.324-.62s.275-.33.443-.443a.986.986 0 0 1 .616-.149c.521.029.892.212 1.11.55.22.338.351.756.398 1.251a8.9 8.9 0 0 1-.01 1.628c-.054.59-.098 1.141-.133 1.656.266.044.55-.046.855-.273.304-.226.597-.488.879-.784.282-.295.53-.582.743-.86.214-.276.363-.442.447-.499.108.006.239.055.393.147.155.092.229.199.22.32-.251.335-.511.663-.782.982-.27.32-.555.615-.856.888-.3.271-.619.505-.954.699a3.353 3.353 0 0 1-1.075.398 18.826 18.826 0 0 1-.752 3.056 16.906 16.906 0 0 1-1.351 2.979c-.336.59-.703 1.1-1.101 1.534-.4.435-.83.753-1.295.955-.463.203-.972.27-1.524.202-.553-.068-1.151-.301-1.795-.7a4.99 4.99 0 0 1-1.508-1.54c-.412-.644-.7-1.45-.862-2.415z"/>
        <path fill="#1D1035" d="M85.512 32.427c.04-.413.102-.845.185-1.295.082-.45.172-.957.269-1.52.096-.565.19-1.195.283-1.891a37.85 37.85 0 0 0 .229-2.424c.25-.202.55-.3.9-.297.35.005.69.1 1.02.289.331.188.616.461.857.821.24.36.376.803.407 1.328-.114.733-.245 1.515-.393 2.346a91.8 91.8 0 0 0-.416 2.564 50.336 50.336 0 0 0-.322 2.627c-.084.873-.12 1.711-.106 2.512-.035.722-.01 1.209.071 1.46.083.251.201.35.357.297.155-.052.334-.22.538-.501.203-.281.402-.597.597-.948.194-.351.376-.691.543-1.021.166-.33.295-.577.385-.741a27.11 27.11 0 0 0 1.098-2.387c.292-.739.532-1.426.72-2.062.136-.856.245-1.57.33-2.142.083-.573.155-1.054.213-1.444.059-.389.103-.717.135-.986.03-.267.06-.523.09-.768.138-.1.312-.183.52-.248.21-.065.42-.104.632-.115a2.31 2.31 0 0 1 .61.045c.196.043.35.113.462.211.401.315.644.937.728 1.866-.135.84-.287 1.748-.457 2.724-.17.976-.324 1.968-.464 2.976a38.455 38.455 0 0 0-.296 2.987c-.058.983-.043 1.9.046 2.752.096.344.246.422.45.233.204-.188.445-.499.724-.93.285-.523.598-1.099.936-1.726.338-.628.678-1.271 1.018-1.93.34-.658.673-1.306 1-1.942.325-.637.618-1.225.878-1.765a.486.486 0 0 1 .251-.055.565.565 0 0 1 .243.071.44.44 0 0 1 .176.183c.041.08.051.173.031.28-.231.494-.496 1.057-.794 1.688-.3.63-.616 1.282-.951 1.956-.335.675-.68 1.36-1.037 2.056a76.133 76.133 0 0 1-1.051 1.986 42.6 42.6 0 0 1-1.02 1.802c-.319.529-.68.952-1.083 1.268-.684.562-1.287.506-1.81-.17a5.028 5.028 0 0 1-.66-1.4 10.59 10.59 0 0 1-.363-1.695 16.117 16.117 0 0 1-.136-1.834 28.874 28.874 0 0 1 .022-1.834c-.365.734-.743 1.517-1.135 2.35a20.445 20.445 0 0 1-1.272 2.32 4.222 4.222 0 0 1-.961 1.067 3.019 3.019 0 0 1-1.147.583 1.74 1.74 0 0 1-1.132-.099c-.365-.158-.677-.484-.935-.975-.268-.54-.43-1.195-.483-1.968a17.36 17.36 0 0 1-.002-2.38c.054-.813.132-1.59.233-2.332.102-.74.181-1.349.24-1.823"/>
        <g transform="translate(97 22)">
            <mask id="b" fill="#fff">
                <use xlink:href="#a"/>
            </mask>
            <path fill="#1D1035" d="M3.299 8.428c.13-.178.247-.449.35-.812a9.04 9.04 0 0 0 .248-1.212c.063-.443.102-.899.12-1.368a9.54 9.54 0 0 0-.032-1.297 3.799 3.799 0 0 0-.213-.982c-.102-.26-.238-.402-.408-.427-.243.295-.461.744-.653 1.35a8.674 8.674 0 0 0-.371 1.875 5.447 5.447 0 0 0 .12 1.786c.135.547.415.91.839 1.087zm.889 13.524a7.834 7.834 0 0 1-.212-1.583 23.8 23.8 0 0 1-.003-1.919c.026-.676.078-1.37.158-2.082a114.479 114.479 0 0 1 .536-4.073c.094-.626.178-1.192.25-1.696-.826.323-1.537.391-2.132.203A2.9 2.9 0 0 1 1.311 9.75C.923 9.235.637 8.607.455 7.864a9.34 9.34 0 0 1-.264-2.303 9.729 9.729 0 0 1 .291-2.306C.67 2.51.94 1.885 1.29 1.38c.323-.49.68-.855 1.072-1.095s.77-.32 1.134-.238c.364.083.68.343.949.782.267.439.44 1.084.515 1.935a15 15 0 0 1 .039 1.667 17.66 17.66 0 0 1-.13 1.668 14.87 14.87 0 0 1-.269 1.522c-.11.472-.236.881-.378 1.227.114.068.272.085.472.05.2-.035.415-.089.644-.16.229-.073.462-.152.699-.239.236-.087.455-.148.655-.183.36-.057.655-.029.886.084.23.113.406.289.53.527.122.238.202.531.238.88.036.349.04.73.013 1.144-.012.185-.05.503-.112.953-.062.452-.137.975-.222 1.572l-.274 1.902c-.098.673-.186 1.316-.266 1.927-.085.688-.15 1.26-.192 1.71-.043.453-.04.758.009.915.049.157.152.147.309-.03.157-.176.392-.547.707-1.115.315-.583.677-1.264 1.085-2.043.408-.778.813-1.56 1.214-2.347.401-.786.78-1.536 1.139-2.248.356-.712.642-1.293.857-1.743a.515.515 0 0 1 .482.038c.159.094.218.247.177.461l-.736 1.554c-.306.645-.639 1.339-.998 2.082-.36.743-.726 1.496-1.1 2.261-.374.765-.727 1.47-1.06 2.113-.413.871-.775 1.59-1.082 2.158a16.15 16.15 0 0 1-.813 1.365c-.294.446-.611.755-.952.929-.342.174-.665.229-.971.166-.306-.064-.583-.233-.828-.51-.246-.275-.427-.631-.543-1.07zM28.469 26.651c-.09.748-.203 1.486-.34 2.212a20.279 20.279 0 0 1-.507 2.077 8.806 8.806 0 0 1-.714 1.734c-.277.496-.6.89-.972 1.18a2.01 2.01 0 0 1-1.27.436c-.332 0-.54-.137-.623-.41a2.325 2.325 0 0 1-.058-.955c.044-.363.119-.718.224-1.064.105-.346.174-.597.208-.754.288-1.15.478-2.334.573-3.551.093-1.217.1-2.432.016-3.643-.083-1.212-.25-2.401-.498-3.568a22.011 22.011 0 0 0-.988-3.342 28.746 28.746 0 0 1-.523-1.147c-.16-.375-.318-.734-.474-1.08-.177-.447-.246-.838-.207-1.174.039-.334.16-.613.365-.837.205-.223.476-.388.814-.494a3.489 3.489 0 0 1 1.138-.143c.797.113 1.466.409 2.009.889.542.48.977 1.052 1.304 1.716.326.665.561 1.374.705 2.127.144.754.222 1.46.233 2.12.542-.29.98-.587 1.312-.888.908-.848 1.566-1.722 1.976-2.621.41-.9.617-1.776.623-2.63a5.772 5.772 0 0 0-.507-2.43 6.605 6.605 0 0 0-1.412-2.026 6.95 6.95 0 0 0-2.1-1.407 6.959 6.959 0 0 0-2.558-.578c-.902-.034-1.829.117-2.781.452-.952.335-1.882.9-2.79 1.692a25.158 25.158 0 0 0-1.927 1.918 33.545 33.545 0 0 0-1.685 2.018 35.468 35.468 0 0 0-2.416 3.56c-.277.475-.487.852-.631 1.13-.144.28-.205.42-.183.42-.177 0-.301-.045-.374-.135a.625.625 0 0 1-.132-.31 1.553 1.553 0 0 1-.009-.36c.011-.122.017-.223.017-.3 0-.09.094-.347.282-.772.188-.424.449-.946.78-1.566.333-.62.731-1.295 1.196-2.027.465-.731.975-1.449 1.528-2.152a32.299 32.299 0 0 1 1.719-1.927 26.914 26.914 0 0 1 1.926-1.809c.67-.569 1.365-1.097 2.084-1.582.72-.486 1.45-.902 2.192-1.248a13.371 13.371 0 0 1 2.184-.788 8.66 8.66 0 0 1 2.2-.284c1.34 0 2.494.228 3.463.686.969.458 1.76 1.07 2.375 1.835a7.183 7.183 0 0 1 1.329 2.63c.27.987.381 2.015.332 3.082a11.48 11.48 0 0 1-.615 3.182 11.115 11.115 0 0 1-1.511 2.932 10.054 10.054 0 0 1-2.366 2.336 8.778 8.778 0 0 1-3.172 1.39 97.273 97.273 0 0 0 2.84 4.808 26.215 26.215 0 0 0 2.964 3.878 17.015 17.015 0 0 0 3.529 2.897c1.295.8 2.8 1.421 4.517 1.868.697.19 1.17.47 1.42.838.248.368.34.768.274 1.197-.067.43-.258.86-.573 1.29-.316.43-.695.796-1.138 1.097a2.305 2.305 0 0 1-.756.36 4.67 4.67 0 0 1-.805.143 5.93 5.93 0 0 1-.764.017 14.367 14.367 0 0 0-.63-.017 5.409 5.409 0 0 1-1.96-.503 9.458 9.458 0 0 1-1.952-1.206 16.327 16.327 0 0 1-1.868-1.742 23.082 23.082 0 0 1-1.727-2.11 26.813 26.813 0 0 1-1.503-2.312 23.943 23.943 0 0 1-1.196-2.336 20.4 20.4 0 0 1-.83-2.195c-.216-.698-.346-1.326-.39-1.884a57.869 57.869 0 0 1-.216 2.16z" mask="url(#b)"/>
        </g>
        <path fill="#1D1035" d="M138.117 35.939c.097.245.107.484.027.718-.079.234-.21.44-.393.618a1.847 1.847 0 0 1-.659.41c-.256.094-.509.122-.759.083a1.28 1.28 0 0 1-.686-.35c-.208-.196-.36-.494-.458-.895-.183-.768-.235-1.339-.155-1.712.079-.373.228-.615.448-.726.195-.1.424-.112.686-.034.263.078.522.212.778.401.256.19.49.415.704.676a2.7 2.7 0 0 1 .467.81zm-4.08 8.899c.012-.301.042-.616.091-.945.05-.328.1-.698.156-1.11.054-.412.103-.871.146-1.378.042-.507.064-1.094.064-1.763.22-.155.491-.239.814-.25a2.418 2.418 0 0 1 1.802.727c.244.25.396.565.458.943a120.11 120.11 0 0 1-.256 1.988 47.84 47.84 0 0 0-.247 2.172c-.067.735-.098 1.459-.092 2.172.006.712.076 1.375.21 1.987.11.245.254.296.43.15.177-.144.382-.378.614-.701l.76-1.286c.273-.468.548-.947.823-1.437.274-.49.542-.971.804-1.445.263-.473.498-.91.705-1.311a.543.543 0 0 1 .23-.05c.078 0 .154.014.227.041a.39.39 0 0 1 .175.126.253.253 0 0 1 .045.2c-.183.367-.393.785-.632 1.253-.237.468-.49.952-.759 1.453-.268.502-.546 1.011-.832 1.529-.287.518-.57 1.01-.851 1.478-.293.501-.57.95-.833 1.345-.262.395-.57.715-.923.96-.599.434-1.16.418-1.684-.05-.39-.4-.69-.89-.897-1.47a9.351 9.351 0 0 1-.448-1.812 13.01 13.01 0 0 1-.137-1.871c0-.618.012-1.167.036-1.645z"/>
        <path fill="#1D1035" d="M144.742 43.48a103.717 103.717 0 0 1 .15-2.447c-.22-.466-.454-.717-.702-.756-.249-.04-.498.077-.747.349-.248.272-.485.666-.708 1.182a11.49 11.49 0 0 0-.582 1.74 15.79 15.79 0 0 0-.374 2.013c-.084.699-.111 1.37-.082 2.014.04.522.124.896.254 1.124.13.227.286.35.47.366.184.017.383-.045.597-.183.214-.139.423-.32.627-.541a6.59 6.59 0 0 0 .963-1.398c-.02-.6-.01-1.19.03-1.773s.074-1.146.104-1.69zm3.24-9.903a61.796 61.796 0 0 1-.373 4.96 115.13 115.13 0 0 0-.463 4.843c-.03.567-.075 1.194-.135 1.882-.06.687-.08 1.381-.06 2.08.01.466.043.796.097.99.055.195.127.292.217.292s.189-.075.298-.225a6.5 6.5 0 0 0 .359-.558c.189-.388.395-.815.62-1.281.223-.466.447-.943.67-1.432.225-.488.444-.968.658-1.44.214-.471.405-.907.574-1.306a.377.377 0 0 1 .187-.05c.064 0 .127.014.187.041.06.028.106.07.141.125a.297.297 0 0 1 .038.2c-.15.366-.321.783-.515 1.249-.194.465-.4.948-.62 1.448-.219.5-.445 1.007-.679 1.522a52.583 52.583 0 0 1-.694 1.474c-.239.499-.465.946-.68 1.34a3.297 3.297 0 0 1-.753.957c-.488.432-.946.416-1.373-.05a3.287 3.287 0 0 1-.672-1.224 9.6 9.6 0 0 1-.313-1.406c-.27.377-.533.749-.792 1.115a4.972 4.972 0 0 1-.828.924c-.294.25-.617.416-.97.5-.354.082-.76.03-1.217-.16a2.758 2.758 0 0 1-1.037-.973 4.947 4.947 0 0 1-.62-1.464 7.958 7.958 0 0 1-.231-1.765c-.015-.627.027-1.257.127-1.89.1-.631.246-1.242.44-1.83.194-.588.43-1.115.71-1.581.277-.466.594-.855.947-1.165.353-.311.739-.5 1.157-.566.238-.033.487-.042.746-.025.259.016.508.058.747.125.238.066.455.16.649.282.194.123.346.273.455.45.08-1.043.17-2.058.269-3.046.1-.987.189-1.986.269-2.996l.119-1.448c.02-.61.127-1.026.32-1.248a.664.664 0 0 1 .725-.217c.299.078.535.194.709.35.174.156.306.344.396.566.089.222.146.472.171.749.025.278.032.571.023.882z"/>
        <g>
            <mask id="d" fill="#fff">
                <use xlink:href="#c"/>
            </mask>
            <path fill="#1D1035" d="M154.592 44.45c.374-.1.759-.227 1.154-.382a4.369 4.369 0 0 0 1.071-.598c.319-.243.585-.537.8-.88.213-.343.332-.752.353-1.228.045-.675-.268-1.106-.938-1.295-.176-.044-.371.05-.586.282-.214.233-.43.554-.65.963-.22.41-.435.888-.643 1.436-.21.548-.396 1.115-.56 1.702zm3.626-1.528a3.263 3.263 0 0 1-.676.855 5.523 5.523 0 0 1-.923.673c-.34.199-.703.367-1.087.506-.385.138-.77.251-1.154.34a21.29 21.29 0 0 0-.313 1.76c-.077.575-.11 1.095-.099 1.56.011.465.077.846.198 1.145.12.298.318.465.593.498.374.055.753-.02 1.138-.224a4.801 4.801 0 0 0 1.137-.871c.373-.377.733-.811 1.079-1.304.346-.492.673-.998.98-1.519.308-.52.59-1.031.849-1.535.258-.503.48-.951.668-1.344.186-.393.337-.706.453-.938.115-.233.183-.338.205-.315a.353.353 0 0 1 .306.116c.082.088.1.243.057.465-.099.254-.239.583-.42.987s-.393.847-.634 1.328c-.242.481-.51.985-.8 1.51a29.297 29.297 0 0 1-.906 1.527c-.313.493-.635.953-.964 1.378-.33.426-.649.778-.956 1.054-.725.63-1.425 1.035-2.101 1.212-.676.177-1.294.158-1.854-.058s-1.038-.617-1.434-1.204c-.395-.586-.675-1.322-.84-2.207a8.714 8.714 0 0 1-.09-2.307 11.516 11.516 0 0 1 1.35-4.482 9.126 9.126 0 0 1 1.228-1.76c.45-.497.934-.88 1.45-1.145.517-.265 1.039-.37 1.566-.315.505.055.945.238 1.318.547.374.31.654.687.84 1.13.187.442.272.923.256 1.443a3.261 3.261 0 0 1-.42 1.494z" mask="url(#d)"/>
            <path fill="#1D1035" d="M.183 26.834C31.856 3.612 86.713-18.394 140.31 24.37c4.09 3.263 9.29 5.138 14.703 5.263l.214.005c21.755.654 21.265 25.154 4.06 27.974-.564.092-1.132.137-1.702.17-2.367.134-8.56.342-12.468-.854-.25-.076-.189-.416.073-.414 4.629.028 12.221.045 15.987-2.31 4.93-3.212 10.63-17.531-4.233-21.746-1.117-.317-2.035-.574-3.193-.72-1.15-.145-3.964-.555-6.474-1.036a33.686 33.686 0 0 1-11.813-4.703C121.016 16.75 70.597-8.978.716 27.55c-.508.265-.99-.38-.533-.715" mask="url(#d)"/>
        </g>
        <path fill="#1D1035" d="M50.502 47.287a9.566 9.566 0 0 1-.7-1.586c-.181-.539-.341-1.095-.48-1.668a3.516 3.516 0 0 1-.078-.335l-.058-.321c-.14-.781-.256-1.6-.349-2.454a78.76 78.76 0 0 1-.236-2.586c-.065-.87-.12-1.733-.164-2.59a355.87 355.87 0 0 0-.139-2.493l-.1-1.27a18.48 18.48 0 0 1-.056-.817 6.21 6.21 0 0 0-.09-.81 1.299 1.299 0 0 0-.279-.594 1.908 1.908 0 0 0-.543-.455 2.396 2.396 0 0 0-.69-.26 1.975 1.975 0 0 0-.702-.029c-.306.046-.518.162-.635.35-.118.188-.153.416-.105.683.071.397.121.793.15 1.19.029.397.055.797.079 1.2-.869.14-1.7.29-2.492.452-.792.16-1.568.347-2.327.559-.76.211-1.519.456-2.278.733-.331.12-.666.254-1.003.397-.19.08-.277.284-.197.46.082.182.31.266.51.193.185-.068.37-.131.554-.189.47-.146.952-.284 1.448-.412a31.09 31.09 0 0 1 2.157-.501 49.034 49.034 0 0 1 2.18-.373l.75-.111c.252-.038.503-.07.752-.095.105 1.6.205 3.187.3 4.761.094 1.574.284 3.154.567 4.738l.063.353c.022.119.048.235.081.351.056.245.144.537.266.876.12.34.271.69.45 1.054.18.363.388.728.623 1.095.234.366.493.699.776.998.36.386.73.688 1.113.906.384.218.701.323.953.312.252-.01.393-.149.423-.417.031-.268-.134-.7-.494-1.295"/>
    </g>
</svg>
