<svg xmlns="http://www.w3.org/2000/svg" width="222" height="219" viewBox="0 0 222 219">
    <defs>
        <radialGradient id="a" cx="99.801%" cy="-1.255%" r="179.871%" fx="99.801%" fy="-1.255%" gradientTransform="matrix(-.55485 .54183 -.25465 -.59837 1.549 -.56)">
            <stop offset="0%" stop-color="#261546"/>
            <stop offset="100%" stop-color="#0B021D"/>
        </radialGradient>
    </defs>
    <g fill="none" fill-rule="evenodd" opacity=".236" transform="translate(.268 .852)">
        <ellipse cx="110.995" cy="108.959" fill="#FFF" rx="110.676" ry="108.959"/>
        <path fill="url(#a)" fill-rule="nonzero" d="M138.657 2.738c.01-.055.026-.11.03-.165a2.394 2.394 0 0 0-.023-.512c-.004-.044.003-.085-.004-.129a2.283 2.283 0 0 0-.231-.661c-.019-.037-.044-.071-.065-.108-.004-.004-.004-.011-.007-.018-.002-.005-.009-.007-.011-.014-.016-.025-.03-.053-.046-.076a2.27 2.27 0 0 0-.51-.526c-.045-.032-.095-.05-.142-.08a2.222 2.222 0 0 0-.545-.266c-.085-.027-.17-.041-.258-.057a2.25 2.25 0 0 0-.513-.046c-.092.002-.18.007-.272.02-.06.01-.118 0-.178.014L1.842 27.58a2.3 2.3 0 0 0-1.819 1.921 2.286 2.286 0 0 0 1.208 2.347l38.406 20.086 6.736 37.062c-.005.027.002.057 0 .084a2.134 2.134 0 0 0-.002.543 2.095 2.095 0 0 0 .3.881c.023.037.023.08.048.117.007.012.019.02.028.03.03.043.072.078.106.121.109.133.222.254.351.357.021.017.035.042.058.058.035.025.074.032.109.055.14.091.286.167.44.226.063.023.12.05.185.069.208.06.423.1.64.1h.007c.01 0 .019-.004.028-.004.039.002.078.005.118.005.64 0 1.216-.284 1.644-.721l25.583-16.911 26.787 17.263a2.336 2.336 0 0 0 1.986.252 2.302 2.302 0 0 0 1.438-1.383l32.32-86.978c.03-.078.055-.158.076-.24.01-.035.011-.07.018-.102a.82.82 0 0 0 .016-.08zm-26.745 14.615l-55.404 40.39c-.09.066-.162.149-.24.227-.03.027-.06.05-.085.08a2.315 2.315 0 0 0-.137.162c-.041.055-.074.113-.11.17-.086.137-.158.28-.213.43-.012.03-.03.053-.04.083-.002.009-.01.013-.013.023l-6.35 20.461-5.032-27.683 67.624-34.343zM52.9 83.785l6.295-20.616 9.8 6.317 2.803 1.807-9.523 6.294-9.375 6.198zm67.28-75.776l-78.45 39.84L9.077 30.775 120.18 8.01zm-17.284 77.859L67.322 62.945l-5.387-3.473 69.631-50.765-28.67 77.161z" transform="translate(40.565 63.7)"/>
    </g>
</svg>
