<svg xmlns="http://www.w3.org/2000/svg" width="63" height="63" viewBox="0 0 63 63">
    <g fill="none" fill-rule="evenodd">
        <circle cx="31.5" cy="31.5" r="31.5" fill="#FFF"/>
        <path fill="#0B021D" fill-rule="nonzero" d="M50.68 18.788c.003-.016.008-.032.01-.048a.704.704 0 0 0-.007-.147c-.002-.013 0-.025-.002-.037a.667.667 0 0 0-.065-.19c-.005-.011-.012-.02-.018-.031l-.002-.006-.003-.004c-.005-.007-.008-.015-.013-.021a.646.646 0 0 0-.143-.152c-.013-.01-.027-.014-.04-.023a.619.619 0 0 0-.153-.076c-.024-.008-.048-.012-.073-.017a.618.618 0 0 0-.22-.007c-.018.003-.034 0-.05.004l-37.683 7.9a.662.662 0 0 0-.172 1.228l10.797 5.777 1.894 10.66v.024a.628.628 0 0 0 .012.233.64.64 0 0 0 .072.176c.006.01.006.023.013.034l.008.008c.008.013.02.023.03.035.03.039.062.073.099.103l.016.017c.01.007.02.009.03.015.04.027.08.048.124.066l.052.02a.642.642 0 0 0 .18.028h.002l.008-.001.033.001a.64.64 0 0 0 .462-.207l7.192-4.864 7.53 4.965a.646.646 0 0 0 .964-.325l9.086-25.017a.61.61 0 0 0 .02-.07c.004-.01.004-.02.006-.028l.005-.023zm-7.518 4.203L27.586 34.608c-.025.02-.045.043-.067.065-.009.008-.017.015-.024.024a.663.663 0 0 0-.039.046c-.011.016-.02.033-.03.049a.678.678 0 0 0-.06.124c-.004.008-.01.015-.012.024 0 .002-.003.003-.004.006l-1.785 5.885-1.414-7.962 19.01-9.878zm-16.59 19.107l1.77-5.929 2.754 1.817.788.52-2.677 1.81-2.636 1.782zm18.914-21.794L23.43 31.763l-9.18-4.912 31.235-6.547zm-4.86 22.394l-10-6.594-1.514-.999 19.575-14.6-8.06 22.193z"/>
    </g>
</svg>
