<svg xmlns="http://www.w3.org/2000/svg" width="20" height="20" viewBox="0 0 20 20">
    <path fill="#FFF" fill-rule="nonzero" d="M18.485 0H1.475C.66 0 0 .64 0 1.43v17.098c0 .79.66 1.431 1.475 1.431h17.01c.814 0 1.474-.64 1.474-1.43V1.43c0-.79-.66-1.43-1.474-1.43zM6.051 16.707H3.035V7.696h3.016v9.011zM4.544 6.465h-.02c-1.012 0-1.668-.692-1.668-1.558 0-.883.675-1.556 1.707-1.556 1.031 0 1.665.673 1.685 1.556 0 .866-.654 1.558-1.704 1.558zm12.378 10.242h-3.015v-4.821c0-1.212-.437-2.038-1.527-2.038-.834 0-1.33.557-1.547 1.096-.08.192-.1.461-.1.73v5.033H7.719s.04-8.166 0-9.011h3.014v1.277c.4-.614 1.116-1.49 2.717-1.49 1.984 0 3.472 1.288 3.472 4.057v5.167zm-6.193-7.662c.011-.018.027-.04.042-.061v.061h-.042z"/>
</svg>
